<?xml version="1.0" encoding="utf-8"?>
<!-- Generator: Adobe Illustrator 18.0.0, SVG Export Plug-In . SVG Version: 6.00 Build 0)  -->
<!DOCTYPE svg PUBLIC "-//W3C//DTD SVG 1.1//EN" "http://www.w3.org/Graphics/SVG/1.1/DTD/svg11.dtd">
<svg version="1.1" id="Layer_1" xmlns="http://www.w3.org/2000/svg" xmlns:xlink="http://www.w3.org/1999/xlink" x="0px" y="0px"
	 viewBox="0 0 792 612" enable-background="new 0 0 792 612" xml:space="preserve">
<path fill="#30AD65" d="M785.5,349.9c0,177.1-179,235.4-406.1,235.4S-0.1,487-0.1,309.9S108.7,5.1,334.9,27.8
	C644.6,58.9,785.5,172.8,785.5,349.9z"/>
<text transform="matrix(0.9415 0 0 1 357.8647 361.7598)" fill="#FFFFFF" font-family="'Athelas-Regular'" font-size="189.2883">Book</text>
<text transform="matrix(0.9415 0 0 1 402.624 455.0938)" fill="#FFFFFF" font-family="'Athelas-Regular'" font-size="121.9385">Mouse</text>
<path fill="#ED6E74" d="M67.3,230.4l46.9,58.8c0,0,18.5-13.5,38.6-32.5l-44.2-68.5C108.7,188.2,71.3,217.7,67.3,230.4z"/>
<path fill="#F37E80" d="M67.3,229l34.4,67.9c0,0,27.9-15.4,51.2-29.6l-36.7-70.4C116.1,196.8,73.8,217.4,67.3,229z"/>
<path fill="#F37E80" d="M217.8,436.7c15.6-3.5,29.4-0.5,30.8,6.6s-10.1,15.7-25.7,19.2s-29.4,0.5-30.8-6.6
	C190.7,448.8,202.2,440.2,217.8,436.7z"/>
<path fill="#F37E80" d="M275.5,451.5c15.6-3.5,29.4-0.5,30.8,6.6c1.4,7.1-10.1,15.7-25.7,19.2c-15.6,3.5-29.4,0.5-30.8-6.6
	S259.9,455,275.5,451.5z"/>
<path fill="#6D4A1D" d="M228.8,99.5c0,0,36.2,12.3,46.7,12.3c10.5,0,36.2,4,60.2,42.4c0,0,34.9-13,54.7,27.4
	c19.6,40.5-24.6,41-24.6,41s-34.9-5.3-45.4-24.8c0,0-26.2,26.7-8.3,63.2c0,0,21.7,44.3,21.1,65.8c0,0,21,9.8,33.3,106.3
	c0,0-2.2,36.8-77.4,25.4c0,0-165.1,1.9-88.3-146c0,0-15.3-45,17.1-80.2c0,0-55.2-56.7-21.5-123.1L228.8,99.5z"/>
<path fill="#E4E3E5" d="M212.1,314.6c0,0-75.1,113.3,71.5,134.6c3.5,0.4,6.2-3.1,5-6.6c-7.5-21.1-25.3-79.2-3.3-94
	c27.1-18.2,6.1-44.6,6.1-44.6l-28.7-65.2l-51.8,32.5C211.1,271.3,209,302.3,212.1,314.6z"/>
<path fill="#E4E3E5" d="M222.3,240.2c0,0-62.7-60.8-26.5-131.6c0,0,7.3-24.3,32.7-10.4c0,0,61.6,30.1,35.6,121.8
	C264.1,220,238.6,250.1,222.3,240.2z"/>
<path fill="#775229" d="M239.8,239.7c0,0-50.2,12-42.6,40.2c7.6,28.1,57.3-17.4,57.3-28.4c0,0,35.6-5.9,17.1-24.8
	S239.8,239.7,239.8,239.7z"/>
<path fill="#775229" d="M323.3,300.2c0,0-60.6,24.2-65-50.6c0,0,3.7-19.2,22.1-6.7C298.7,255.3,341.7,287.9,323.3,300.2z"/>
<path fill="#996833" d="M322.6,141.7c0,11.6-10.6,17.9-23.7,17.9c-13.1,0-23.7-9.4-23.7-21s3.2-21,16.3-21
	C304.4,117.8,322.6,130.1,322.6,141.7z"/>
<ellipse cx="301.5" cy="137.6" rx="11.7" ry="10.3"/>
<ellipse fill="#FFFFFF" cx="306.2" cy="134.5" rx="2.3" ry="2.9"/>
<path d="M129.8,79.1c0,0,55.8-7.3,66.8,17.2C196.5,96.3,186.8,77.4,129.8,79.1z"/>
<path d="M187.2,107.4c0,0-50.5-23.6-68.7,8.2C118.5,115.6,133.4,89.8,187.2,107.4z"/>
<path d="M177.2,122.1c0,0-45.7,11.1-47.3,25.8C129.8,147.9,133.4,135.9,177.2,122.1z"/>
<path d="M231,93.4c0,0,31.1-36.9,58.9-29.6C289.9,63.9,262.9,61.1,231,93.4z"/>
<path d="M231,102.9c0,0,39.3-21,85.4-10C316.4,92.9,270.9,85,231,102.9z"/>
<path d="M234.2,109.6c0,0,47.1-11.4,79.2,0.1C313.2,109.8,259.7,102.4,234.2,109.6z"/>
<path fill="#845D2C" d="M366.4,433.2c0,0,60.9,81.8-53.6,101.2C178.5,556.9,116.1,459.7,110.8,432c-5.2-26.7,1.4-52.8,14.9-92.6
	c13.7-40-25.8-29.3-25.8-29.3s-30-0.6-4.7-26.8c25.1-26.2,39.1,31.2,39.1,31.2s7.2,9.2-6.3,48.8c-11.7,34.3-9.7,51.5-7.6,68.9
	c2.2,19.2,66.1,105.7,184.5,91c0,0,87.1-10.4,56.7-74.2C357.8,441.5,366.4,433.2,366.4,433.2z"/>
<g>
	<path d="M205.7,105.4c0.6,2.8,0.8,5.6,1.1,8.4c0.1,1.5,0.1,2.8,0.3,4.3c0,1.5,0.1,2.8,0.1,4.3h-2.8c0-1.5,0-2.8,0.1-4.3
		c0.1-1.5,0.1-2.8,0.3-4.3C204.9,110.9,205.2,108.2,205.7,105.4z M205.7,105.4c0.6,2.8,0.8,5.6,1.1,8.4c0.1,1.5,0.1,2.8,0.3,4.3
		c0,1.5,0,2.8,0.1,4.3h-2.8c0-1.5,0-2.8,0.1-4.3c0.1-1.5,0.1-2.8,0.3-4.3C204.9,110.9,205.2,108.2,205.7,105.4z"/>
</g>
<g>
	<path fill="#FFFFFF" d="M194.5,119.2c0,0,8.6,5.3,24.7,2.9C219.4,122.1,203.5,153,194.5,119.2z"/>
	<path d="M194.5,119.2c1,0.4,1.9,0.9,2.9,1.2c1,0.3,2.1,0.6,3,0.9c2.1,0.4,4.1,0.7,6.2,0.9c1.1,0,2.1,0.1,3.2,0.1c1.1,0,2.1,0,3.2,0
		c1.1,0,2.1-0.1,3.2-0.1c1.1-0.1,2.1-0.3,3.2-0.4l1.2-0.1l-0.6,1.2c-0.8,1.6-1.7,2.9-2.6,4.4c-1,1.5-2.1,2.8-3.2,4
		c-0.6,0.6-1.2,1.2-1.8,1.8c-0.7,0.6-1.4,1-2.1,1.5c-0.4,0.3-0.7,0.4-1.1,0.6s-0.8,0.3-1.2,0.4c-0.8,0.3-1.7,0.4-2.6,0.3
		c-0.8-0.1-1.8-0.3-2.5-0.7c-0.8-0.4-1.5-1-2.1-1.6c-0.3-0.3-0.6-0.6-0.8-1l-0.7-1c-0.4-0.7-0.8-1.5-1.2-2.2c-0.3-0.7-0.7-1.6-1-2.3
		c-0.3-0.9-0.6-1.6-0.8-2.5c-0.3-0.9-0.6-1.6-0.7-2.5L194.5,119.2z M194.5,119.2l0.8,2.5c0.3,0.9,0.6,1.6,0.8,2.3
		c0.3,0.7,0.7,1.6,1,2.3s0.7,1.5,1.1,2.2c0.4,0.7,0.8,1.5,1.4,2.1l0.7,1c0.3,0.3,0.6,0.6,0.8,0.9c0.6,0.6,1.2,1,1.9,1.3
		c0.7,0.3,1.4,0.4,2.1,0.6c0.7,0,1.5-0.1,2.2-0.3c0.4-0.1,0.7-0.3,1.1-0.4c0.4-0.1,0.7-0.3,1-0.6c0.7-0.4,1.2-0.9,1.9-1.5
		c0.6-0.6,1.1-1.2,1.7-1.8c1.1-1.2,2.1-2.5,3-3.8c1-1.3,1.8-2.8,2.6-4.3l0.7,1c-1.1,0.1-2.1,0.3-3.2,0.3s-2.1,0.1-3.2,0.1
		s-2.1,0-3.2,0s-2.1-0.1-3.2-0.3c-0.6,0-1.1-0.1-1.5-0.3c-0.6,0-1.1-0.1-1.5-0.3c-1.1-0.1-2.1-0.4-3-0.7c-1-0.3-2.1-0.6-3-1
		C196.5,120.2,195.5,119.7,194.5,119.2z"/>
</g>
<path fill="#F37E80" d="M208.9,93.9c7.3-2.1,13.9-1,14.8,2.4s-4.3,7.9-11.6,10c-7.3,2.1-13.9,1-14.8-2.4S201.6,96,208.9,93.9z"/>
<path fill="#EA5960" d="M67.3,227.8l34.4,69.2c0,0,24.6-16.1,51.2-20.7l-29.1-60C123.7,216.3,77.2,219.4,67.3,227.8z"/>
<path fill="#684727" d="M258.3,250.7c0,0,14.9-4.4,17.8-10.1C276.1,240.5,273.9,249.2,258.3,250.7z"/>
</svg>
