<?xml version="1.0" encoding="utf-8"?>
<!-- Generator: Adobe Illustrator 18.0.0, SVG Export Plug-In . SVG Version: 6.00 Build 0)  -->
<!DOCTYPE svg PUBLIC "-//W3C//DTD SVG 1.1//EN" "http://www.w3.org/Graphics/SVG/1.1/DTD/svg11.dtd">
<svg version="1.1" id="Layer_1" xmlns="http://www.w3.org/2000/svg" xmlns:xlink="http://www.w3.org/1999/xlink" x="0px" y="0px"
	 viewBox="0 0 612 792" enable-background="new 0 0 612 792" xml:space="preserve">
<path fill="#30AD65" d="M585.7,414.3c0,120.8-129.7,160.6-294.2,160.6s-275-67.1-275-187.9s78.8-207.9,242.7-192.4
	C483.6,215.8,585.7,293.5,585.7,414.3z"/>
<text transform="matrix(1 0 0 1 275.8344 422.3918)" fill="#FFFFFF" font-family="'Athelas-Regular'" font-size="129.1211">Book</text>
<text transform="matrix(1 0 0 1 308.2651 486.0587)" fill="#FFFFFF" font-family="'Athelas-Regular'" font-size="83.1791">Mouse</text>
<path fill="#ED6E74" d="M65.3,332.8l34,40.1c0,0,13.4-9.2,28-22.2L95.3,304C95.3,304,68.2,324.1,65.3,332.8z"/>
<path fill="#F37E80" d="M65.3,331.8l24.9,46.3c0,0,20.2-10.5,37.1-20.2l-26.6-48C100.7,309.9,70,323.9,65.3,331.8z"/>
<ellipse transform="matrix(0.9788 -0.2049 0.2049 0.9788 -95.1039 46.3426)" fill="#F37E80" cx="176.2" cy="482.3" rx="20.9" ry="9"/>
<ellipse transform="matrix(0.9788 -0.2049 0.2049 0.9788 -96.2856 55.119)" fill="#F37E80" cx="218" cy="492.4" rx="20.9" ry="9"/>
<path fill="#6D4A1D" d="M182.3,243.5c0,0,26.2,8.4,33.8,8.4c7.6,0,26.2,2.7,43.6,28.9c0,0,25.3-8.9,39.6,18.7
	c14.2,27.6-17.8,28-17.8,28s-25.3-3.6-32.9-16.9c0,0-19,18.2-6,43.1c0,0,15.7,30.2,15.3,44.9c0,0,15.2,6.7,24.1,72.5
	c0,0-1.6,25.1-56.1,17.3c0,0-119.6,1.3-64-99.6c0,0-11.1-30.7,12.4-54.7c0,0-40-38.7-15.6-84L182.3,243.5z"/>
<path fill="#E4E3E5" d="M170.2,390.2c0,0-54.4,77.3,51.8,91.8c2.5,0.3,4.5-2.1,3.6-4.5c-5.4-14.4-18.3-54-2.4-64.1
	c19.6-12.4,4.4-30.4,4.4-30.4l-20.8-44.5l-37.5,22.2C169.5,360.7,168,381.8,170.2,390.2z"/>
<path fill="#E4E3E5" d="M177.6,339.5c0,0-45.4-41.5-19.2-89.8c0,0,5.3-16.6,23.7-7.1c0,0,44.6,20.5,25.8,83.1
	C207.9,325.7,189.4,346.2,177.6,339.5z"/>
<path fill="#775229" d="M190.3,339.1c0,0-36.4,8.2-30.9,27.4c5.5,19.2,41.5-11.9,41.5-19.4c0,0,25.8-4,12.4-16.9
	S190.3,339.1,190.3,339.1z"/>
<path fill="#775229" d="M250.8,380.4c0,0-43.9,16.5-47.1-34.5c0,0,2.7-13.1,16-4.6C233,349.8,264.1,372,250.8,380.4z"/>
<path fill="#996833" d="M250.3,272.3c0,7.9-7.7,12.2-17.2,12.2s-17.2-6.4-17.2-14.3s2.3-14.3,11.8-14.3
	C237.1,256,250.3,264.4,250.3,272.3z"/>
<ellipse cx="235" cy="269.5" rx="8.5" ry="7"/>
<ellipse fill="#FFFFFF" cx="238.4" cy="267.4" rx="1.7" ry="2"/>
<path d="M110.6,229.6c0,0,40.4-5,48.4,11.7C158.9,241.3,151.9,228.4,110.6,229.6z"/>
<path d="M152.2,248.9c0,0-36.6-16.1-49.8,5.6C102.4,254.5,113.2,236.9,152.2,248.9z"/>
<path d="M144.9,258.9c0,0-33.1,7.6-34.3,17.6C110.6,276.5,113.2,268.3,144.9,258.9z"/>
<path d="M183.9,239.3c0,0,22.5-25.2,42.7-20.2C226.6,219.2,207,217.3,183.9,239.3z"/>
<path d="M183.9,245.8c0,0,28.5-14.3,61.9-6.8C245.8,239,212.8,233.6,183.9,245.8z"/>
<path d="M186.2,250.4c0,0,34.1-7.8,57.4,0.1C243.5,250.5,204.7,245.5,186.2,250.4z"/>
<path fill="#845D2C" d="M282,471.1c0,0,44.1,55.8-38.8,69c-97.3,15.4-142.5-50.9-146.4-69.8c-3.8-18.2,1-36,10.8-63.2
	c9.9-27.3-18.7-20-18.7-20s-21.7-0.4-3.4-18.3c18.2-17.9,28.3,21.3,28.3,21.3s5.2,6.3-4.6,33.3c-8.5,23.4-7,35.1-5.5,47
	c1.6,13.1,47.9,72.1,133.7,62.1c0,0,63.1-7.1,41.1-50.6C275.8,476.8,282,471.1,282,471.1z"/>
<g>
	<path d="M165.6,247.5c0.4,1.9,0.6,3.8,0.8,5.7c0.1,1,0.1,1.9,0.2,2.9c0,1,0.1,1.9,0.1,2.9h-2c0-1,0-1.9,0.1-2.9
		c0.1-1,0.1-1.9,0.2-2.9C165,251.3,165.2,249.4,165.6,247.5z M165.6,247.5c0.4,1.9,0.6,3.8,0.8,5.7c0.1,1,0.1,1.9,0.2,2.9
		c0,1,0,1.9,0.1,2.9h-2c0-1,0-1.9,0.1-2.9c0.1-1,0.1-1.9,0.2-2.9C165,251.3,165.2,249.4,165.6,247.5z"/>
</g>
<g>
	<path fill="#FFFFFF" d="M157.5,256.9c0,0,6.2,3.6,17.9,2C175.5,258.9,164,280,157.5,256.9z"/>
	<path d="M157.5,256.9c0.7,0.3,1.4,0.6,2.1,0.8c0.7,0.2,1.5,0.4,2.2,0.6c1.5,0.3,3,0.5,4.5,0.6c0.8,0,1.5,0.1,2.3,0.1
		c0.8,0,1.5,0,2.3,0c0.8,0,1.5-0.1,2.3-0.1c0.8-0.1,1.5-0.2,2.3-0.3l0.9-0.1l-0.4,0.8c-0.6,1.1-1.2,2-1.9,3c-0.7,1-1.5,1.9-2.3,2.7
		c-0.4,0.4-0.9,0.8-1.3,1.2c-0.5,0.4-1,0.7-1.5,1c-0.3,0.2-0.5,0.3-0.8,0.4c-0.3,0.1-0.6,0.2-0.9,0.3c-0.6,0.2-1.2,0.3-1.9,0.2
		c-0.6-0.1-1.3-0.2-1.8-0.5c-0.6-0.3-1.1-0.7-1.5-1.1c-0.2-0.2-0.4-0.4-0.6-0.7l-0.5-0.7c-0.3-0.5-0.6-1-0.9-1.5
		c-0.2-0.5-0.5-1.1-0.7-1.6c-0.2-0.6-0.4-1.1-0.6-1.7c-0.2-0.6-0.4-1.1-0.5-1.7L157.5,256.9z M157.5,256.9l0.6,1.7
		c0.2,0.6,0.4,1.1,0.6,1.6c0.2,0.5,0.5,1.1,0.7,1.6c0.2,0.5,0.5,1,0.8,1.5c0.3,0.5,0.6,1,1,1.4l0.5,0.7c0.2,0.2,0.4,0.4,0.6,0.6
		c0.4,0.4,0.9,0.7,1.4,0.9c0.5,0.2,1,0.3,1.5,0.4c0.5,0,1.1-0.1,1.6-0.2c0.3-0.1,0.5-0.2,0.8-0.3c0.3-0.1,0.5-0.2,0.7-0.4
		c0.5-0.3,0.9-0.6,1.4-1c0.4-0.4,0.8-0.8,1.2-1.2c0.8-0.8,1.5-1.7,2.2-2.6c0.7-0.9,1.3-1.9,1.9-2.9l0.5,0.7
		c-0.8,0.1-1.5,0.2-2.3,0.2c-0.8,0-1.5,0.1-2.3,0.1c-0.8,0-1.5,0-2.3,0c-0.8,0-1.5-0.1-2.3-0.2c-0.4,0-0.8-0.1-1.1-0.2
		c-0.4,0-0.8-0.1-1.1-0.2c-0.8-0.1-1.5-0.3-2.2-0.5c-0.7-0.2-1.5-0.4-2.2-0.7C158.9,257.6,158.2,257.3,157.5,256.9z"/>
</g>
<ellipse transform="matrix(0.9653 -0.261 0.261 0.9653 -57.813 52.5933)" fill="#F37E80" cx="169.1" cy="243.9" rx="9.9" ry="4.4"/>
<path fill="#EA5960" d="M65.3,331l24.9,47.2c0,0,17.8-11,37.1-14.1l-21.1-40.9C106.2,323.2,72.5,325.3,65.3,331z"/>
<path fill="#684727" d="M203.7,346.6c0,0,10.8-3,12.9-6.9C216.6,339.7,215,345.6,203.7,346.6z"/>
</svg>
