<?xml version="1.0" encoding="utf-8"?>
<!-- Generator: Adobe Illustrator 18.0.0, SVG Export Plug-In . SVG Version: 6.00 Build 0)  -->
<!DOCTYPE svg PUBLIC "-//W3C//DTD SVG 1.1//EN" "http://www.w3.org/Graphics/SVG/1.1/DTD/svg11.dtd">
<svg version="1.1" id="Layer_1" xmlns="http://www.w3.org/2000/svg" xmlns:xlink="http://www.w3.org/1999/xlink" x="0px" y="0px"
	 viewBox="105.3 162 595.7 217.9" enable-background="new 105.3 162 595.7 217.9" xml:space="preserve">
<line fill="none" stroke="#E8366C" stroke-width="10" stroke-miterlimit="10" x1="117.7" y1="273.7" x2="682.6" y2="274.8"/>
<line fill="none" stroke="#E8366C" stroke-width="10" stroke-miterlimit="10" x1="122.6" y1="176.2" x2="122.6" y2="370.7"/>
<line fill="none" stroke="#E8366C" stroke-width="10" stroke-miterlimit="10" x1="682.6" y1="176.2" x2="682.6" y2="370.7"/>
<line fill="none" stroke="#E8366C" stroke-width="10" stroke-miterlimit="10" x1="155.1" y1="227.2" x2="155.1" y2="307.4"/>
<line fill="none" stroke="#E8366C" stroke-width="10" stroke-miterlimit="10" x1="212.1" y1="227.2" x2="212.1" y2="307.4"/>
<line fill="none" stroke="#E8366C" stroke-width="10" stroke-miterlimit="10" x1="268.1" y1="228.2" x2="268.1" y2="308.4"/>
<line fill="none" stroke="#E8366C" stroke-width="10" stroke-miterlimit="10" x1="317.9" y1="229" x2="317.9" y2="309.2"/>
<line fill="none" stroke="#E8366C" stroke-width="10" stroke-miterlimit="10" x1="374.9" y1="229" x2="374.9" y2="309.2"/>
<line fill="none" stroke="#5759A7" stroke-width="10" stroke-miterlimit="10" x1="430.9" y1="227.2" x2="430.9" y2="314.9"/>
<line fill="none" stroke="#E8366C" stroke-width="10" stroke-miterlimit="10" x1="478.1" y1="233.6" x2="478.1" y2="313.9"/>
<line fill="none" stroke="#E8366C" stroke-width="10" stroke-miterlimit="10" x1="535.1" y1="233.6" x2="535.1" y2="313.9"/>
<line fill="none" stroke="#E8366C" stroke-width="10" stroke-miterlimit="10" x1="591.1" y1="234.6" x2="591.1" y2="314.9"/>
<line fill="none" stroke="#E8366C" stroke-width="10" stroke-miterlimit="10" x1="638.5" y1="234.2" x2="638.5" y2="314.4"/>
<text transform="matrix(1 0 0 1 147.1053 354.4841)" font-family="'MyriadPro-Regular'" font-size="27.75">1</text>
<text transform="matrix(1 0 0 1 204.0455 354.4843)" font-family="'MyriadPro-Regular'" font-size="27.75">2</text>
<text transform="matrix(1 0 0 1 256.9946 354.4845)" font-family="'MyriadPro-Regular'" font-size="27.75">3</text>
<text transform="matrix(1 0 0 1 308.9255 355.8165)" font-family="'MyriadPro-Regular'" font-size="27.75">4</text>
<text transform="matrix(1 0 0 1 367.1345 356.7122)" font-family="'MyriadPro-Regular'" font-size="27.75">5</text>
<text transform="matrix(1 0 0 1 421.9998 356.7124)" font-family="'MyriadPro-Regular'" font-size="27.75">6</text>
<text transform="matrix(1 0 0 1 472.8641 354.4847)" font-family="'MyriadPro-Regular'" font-size="27.75">7</text>
<text transform="matrix(1 0 0 1 526.8315 354.4843)" font-family="'MyriadPro-Regular'" font-size="27.75">8</text>
<text transform="matrix(1 0 0 1 583.8536 354.4849)" font-family="'MyriadPro-Regular'" font-size="27.75">9</text>
<text transform="matrix(1 0 0 1 627.1777 356.7124)" font-family="'MyriadPro-Regular'" font-size="27.75">10</text>
</svg>
