<?xml version="1.0" encoding="utf-8"?>
<!-- Generator: Adobe Illustrator 18.0.0, SVG Export Plug-In . SVG Version: 6.00 Build 0)  -->
<!DOCTYPE svg PUBLIC "-//W3C//DTD SVG 1.1//EN" "http://www.w3.org/Graphics/SVG/1.1/DTD/svg11.dtd">
<svg version="1.1" id="Layer_1" xmlns="http://www.w3.org/2000/svg" xmlns:xlink="http://www.w3.org/1999/xlink" x="0px" y="0px"
	 viewBox="0 0 368.9 370.2" enable-background="new 0 0 368.9 370.2" xml:space="preserve">
<path fill="#FFFFFF" d="M299.7,14.2h-230c-31.3,0-56.6,25.4-56.6,56.6v230c0,31.3,25.4,56.6,56.6,56.6h167.7V217.4l-40.3-0.1v-38.5
	l40.3,0.1v-68.9c0-22.5,3.9-38.4,11.7-47.7c10.8-13,26.4-19.4,46.9-19.4c7.3,0,13.6,1.5,24.5,4.6l-4.3,35.5c0,0-13.6-3.3-19.3-2.7
	c-7.3,0.8-11.6,4.8-14.2,10.1c-2.6,5.1-3.9,15-3.9,29.7v58.9h44.9v38.5h-44.9v140.1h20.8c31.3,0,56.6-25.4,56.6-56.6v-230
	C356.3,39.6,330.9,14.2,299.7,14.2z"/>
</svg>
