<?xml version="1.0" encoding="utf-8"?>
<!-- Generator: Adobe Illustrator 18.0.0, SVG Export Plug-In . SVG Version: 6.00 Build 0)  -->
<!DOCTYPE svg PUBLIC "-//W3C//DTD SVG 1.1//EN" "http://www.w3.org/Graphics/SVG/1.1/DTD/svg11.dtd">
<svg version="1.1" id="Layer_1" xmlns="http://www.w3.org/2000/svg" xmlns:xlink="http://www.w3.org/1999/xlink" x="0px" y="0px"
	 viewBox="0 0 230.7 232.8" enable-background="new 0 0 230.7 232.8" xml:space="preserve">
<path fill="#FFFFFF" d="M192.6,217.1h-157c-13.8,0-25-11.2-25-25V36c0-13.8,11.2-25,25-25h157c13.8,0,25,11.2,25,25v156.1
	C217.7,205.9,206.4,217.1,192.6,217.1z"/>
<text transform="matrix(1 0 0 1 53.6604 67.8888)" fill="#E8366C" font-family="'MyriadPro-Regular'" font-size="55.176">FREE</text>
<line fill="none" stroke="#E8366C" stroke-width="3" stroke-miterlimit="10" x1="22.9" y1="79.5" x2="199.8" y2="79.5"/>
<text transform="matrix(1 0 0 1 65.7806 107.4513)" font-family="'MyriadPro-Bold'" font-size="22.4743">Features</text>
<text transform="matrix(1 0 0 1 54.6989 141.5955)"><tspan x="0" y="0" font-family="'MyriadPro-Regular'" font-size="17.2679">5 Beginner Books</tspan><tspan x="8.8" y="20.7" font-family="'MyriadPro-Regular'" font-size="17.2679">1 Starter Game</tspan><tspan x="1.4" y="41.4" font-family="'MyriadPro-Regular'" font-size="17.2679">1st  level reading</tspan></text>
<circle cx="47.8" cy="135.1" r="2.2"/>
<circle cx="59.5" cy="157.1" r="2.2"/>
<circle cx="52.2" cy="178" r="2.2"/>
</svg>
