<?xml version="1.0" encoding="utf-8"?>
<!-- Generator: Adobe Illustrator 18.0.0, SVG Export Plug-In . SVG Version: 6.00 Build 0)  -->
<!DOCTYPE svg PUBLIC "-//W3C//DTD SVG 1.1//EN" "http://www.w3.org/Graphics/SVG/1.1/DTD/svg11.dtd">
<svg version="1.1" id="Layer_1" xmlns="http://www.w3.org/2000/svg" xmlns:xlink="http://www.w3.org/1999/xlink" x="0px" y="0px"
	 viewBox="0 0 368.9 370.2" enable-background="new 0 0 368.9 370.2" xml:space="preserve">
<g>
	<path fill="#FFFFFF" d="M302.6,189.1c0,62.4-50.6,113-113,113s-113-50.6-113-113c0-50.2,32.7-92.7,77.9-107.4H8.3v244.1
		c0,19.6,15.9,35.4,35.4,35.4h281.5c19.6,0,35.4-15.9,35.4-35.4V81.7h-136C269.9,96.4,302.6,138.9,302.6,189.1z"/>
	<path fill="#FFFFFF" d="M325.2,8.8H94.1v45.6H78.6V8.8h-8.5v45.6H54.6V8.8h-8.2v45.6H30.8V11.2c-13.2,5.2-22.5,18-22.5,33V71h352.4
		V44.2C360.7,24.6,344.8,8.8,325.2,8.8z M355.5,54.4h-50.1V13.9C361.8,8.8,355.5,54.4,355.5,54.4z"/>
	<circle fill="#FFFFFF" cx="189.6" cy="189.1" r="68.4"/>
</g>
</svg>
