<?xml version="1.0" encoding="utf-8"?>
<!-- Generator: Adobe Illustrator 18.0.0, SVG Export Plug-In . SVG Version: 6.00 Build 0)  -->
<!DOCTYPE svg PUBLIC "-//W3C//DTD SVG 1.1//EN" "http://www.w3.org/Graphics/SVG/1.1/DTD/svg11.dtd">
<svg version="1.1" id="Layer_1" xmlns="http://www.w3.org/2000/svg" xmlns:xlink="http://www.w3.org/1999/xlink" x="0px" y="0px"
	 viewBox="0 0 230.7 232.8" enable-background="new 0 0 230.7 232.8" xml:space="preserve">
<path fill="#FFFFFF" d="M192.6,217.1h-157c-13.8,0-25-11.2-25-25V36c0-13.8,11.2-25,25-25h157c13.8,0,25,11.2,25,25v156.1
	C217.7,205.9,206.4,217.1,192.6,217.1z"/>
<text transform="matrix(1 0 0 1 15.2381 63.6817)" fill="#E8366C" font-family="'MyriadPro-Regular'" font-size="55.176">10</text>
<text transform="matrix(0.583 0 0 0.583 71.8474 45.3081)" fill="#E8366C" font-family="'MyriadPro-Regular'" font-size="55.176">$</text>
<text transform="matrix(1 0 0 1 88.3484 63.6817)" fill="#E8366C" font-family="'MyriadPro-Regular'" font-size="55.176">/</text>
<text transform="matrix(1 0 0 1 107.2732 63.6817)" fill="#E8366C" font-family="'MyriadPro-Regular'" font-size="33">month</text>
<line fill="none" stroke="#E8366C" stroke-width="3" stroke-miterlimit="10" x1="19" y1="79.5" x2="204" y2="79.5"/>
<text transform="matrix(1 0 0 1 70.3165 107.4512)" font-family="'MyriadPro-Bold'" font-size="22.4743">Features</text>
<text transform="matrix(1 0 0 1 81.8537 135.5955)" font-family="'MyriadPro-Regular'" font-size="17.2679"> 30 Books</text>
<text transform="matrix(1 0 0 1 62.5397 156.3172)" font-family="'MyriadPro-Regular'" font-size="17.2679">5 Starter Game</text>
<text transform="matrix(1 0 0 1 49.0949 177.0384)" font-family="'MyriadPro-Regular'" font-size="17.2679">1</text>
<text transform="matrix(0.583 0 0 0.583 57.9533 171.2884)" font-family="'MyriadPro-Regular'" font-size="17.2679">st-</text>
<text transform="matrix(1 0 0 1 68.3625 177.0384)" font-family="'MyriadPro-Regular'" font-size="17.2679">3</text>
<text transform="matrix(0.583 0 0 0.583 77.2204 171.2884)" font-family="'MyriadPro-Regular'" font-size="17.2679">rd</text>
<text transform="matrix(1 0 0 1 86.1901 177.0384)" font-family="'MyriadPro-Regular'" font-size="17.2679"> level reading</text>
<circle cx="78.8" cy="130.1" r="2.2"/>
<circle cx="54.5" cy="151.1" r="2.2"/>
<circle cx="44.2" cy="172" r="2.2"/>
</svg>
