<?xml version="1.0" encoding="utf-8"?>
<!-- Generator: Adobe Illustrator 18.0.0, SVG Export Plug-In . SVG Version: 6.00 Build 0)  -->
<!DOCTYPE svg PUBLIC "-//W3C//DTD SVG 1.1//EN" "http://www.w3.org/Graphics/SVG/1.1/DTD/svg11.dtd">
<svg version="1.1" id="Layer_1" xmlns="http://www.w3.org/2000/svg" xmlns:xlink="http://www.w3.org/1999/xlink" x="0px" y="0px"
	 viewBox="0 0 368.9 370.2" enable-background="new 0 0 368.9 370.2" xml:space="preserve">
<path fill="#FDFDFE" d="M321.9,12.7H47.1c-19.3,0-34.9,15.6-34.9,34.9v274.8c0,19.3,15.6,34.9,34.9,34.9h274.8
	c19.3,0,34.9-15.6,34.9-34.9V47.7C356.8,28.4,341.2,12.7,321.9,12.7z M337.6,104.4c-7.9,7.8-15.8,15.7-23.7,23.5
	c-0.9,2.2-2.2,5.2-3.1,7.5c0,0.8,0,1.6,0,2.4c0,0.9,0,1.8-0.1,2.8c-0.2,2.4-0.4,4.8-0.6,7.1c-0.2,4.3-0.4,8.6-0.5,12.9
	c0,1.2-0.2,2.3-0.4,3.5c-4.4,22.6-11.9,44.1-22.8,64.5c-12,17.9-24.7,35.1-41.8,48.6c-25.2,20-53.6,31.9-85.5,36
	c-6.9,0.9-13.9,3.2-20.7,3c-33.2-0.8-64.4-9.1-93.2-25.8c-0.9-0.5-1.6-1.2-1.8-1.3c14.8-2,30.1-3.2,45-6.4c15-3.2,28.3-10.6,40.7-20
	c-9-3-17.5-5.4-25.7-8.6c-2.9-1.2-5.6-2.8-8.3-4.5c-3.9-2.5-7.3-5.8-9.8-9.8c-4.4-6.8-8.8-13.7-13.7-21.3h24.3
	c-7.9-5.2-15.3-10.1-22.7-14.9c-3.3-2.2-6-5.1-8.1-8.5c-0.2-0.3-0.3-0.5-0.5-0.7c-8.4-11.3-13.3-23.9-13.2-38.1
	c8.1,2.5,16.1,4.9,24.2,7.4c-22.3-30.6-27.7-44.7-22.8-63.4c2.2-6.2,4.4-12.4,7.5-21c5.3,6,9.1,10.3,13,14.7
	c31,32.1,69.3,47.6,114.2,51.4c-1.5-18.6-0.9-35.4,10.1-50c22.7-28.8,53.9-30.8,75.5-21c5.4,2.4,10.9,5.4,15.1,9.5
	c4.7,4.5,9.2,4.9,14.6,2.8c9.3-3.5,18.6-6.9,29.4-11c-2.2,5.1-4,9.1-5.8,13.1c-0.3,0.6-0.6,1.2-1.1,1.6c-4.9,5.6-9.8,11.2-15.1,17.2
	c9.2-2.3,18.6-4.7,28-7.2C338.9,101.7,338.7,103.3,337.6,104.4z"/>
</svg>
